# AST/ASF file generated using VICON BodyLanguage
# -----------------------------------------------
:version 1.10
:name VICON
:units
  mass 1.0
  length 0.45
  angle deg
:documentation
   .ast/.asf automatically generated from VICON data using
   VICON BodyBuilder and BodyLanguage model FoxedUp or BRILLIANT.MOD
:root
   order TX TY TZ RX RY RZ
   axis XYZ
   position 0 0 0  
   orientation 0 0 0 
:bonedata
  begin
     id 1 
     name lhipjoint
     direction 0.537252 -0.787203 0.302774 
     length 2.29576 
     axis 0 0 0  XYZ
  end
  begin
     id 2 
     name lfemur
     direction 0.34202 -0.939693 0  
     length 7.31114  
     axis 0 0 20  XYZ
    dof rx ry rz
    limits (-160.0 20.0)
           (-70.0 70.0)
           (-60.0 70.0)
  end
  begin
     id 3 
     name ltibia
     direction 0.34202 -0.939693 0   
     length 8.36008   
     axis 0 0 20   XYZ
    dof rx
    limits (-10.0 170.0)
  end
  begin
     id 4 
     name lfoot
     direction 0.0969116 -0.266263 0.959016   
     length 2.16704   
     axis -90 7.62852e-016 20   XYZ
    dof rx rz
    limits (-45.0 90.0)
           (-70.0 20.0)
  end
  begin
     id 5 
     name ltoes
     direction 1.53563e-011 -4.21779e-011 1   
     length 1.08338   
     axis -90 7.62852e-016 20   XYZ
    dof rx
    limits (-90.0 20.0)
  end
  begin
     id 6 
     name rhipjoint
     direction -0.588228 -0.754791 0.290308   
     length 2.39434  
     axis 0 0 0  XYZ 
  end
  begin
     id 7 
     name rfemur
     direction -0.34202 -0.939693 0   
     length 7.45207   
     axis 0 0 -20   XYZ
    dof rx ry rz
    limits (-160.0 20.0)
           (-70.0 70.0)
           (-70.0 60.0)
  end
  begin
     id 8 
     name rtibia
     direction -0.34202 -0.939693 0   
     length 8.03565   
     axis 0 0 -20   XYZ
    dof rx
    limits (-10.0 170.0)
 end
 begin
     id 9 
     name rfoot
     direction -0.107009 -0.294004 0.949795   
     length 2.11509  
     axis -90 -7.62852e-016 -20   XYZ
    dof rx rz
    limits (-45.0 90.0)
           (-20.0 70.0)
  end
  begin
     id 10 
     name rtoes
     direction -1.53533e-011 -4.22004e-011 1   
     length 1.05493   
     axis -90 -7.62852e-016 -20   XYZ
    dof rx
    limits (-90.0 20.0)
  end
  begin
     id 11 
     name lowerback
     direction -0.0115208 0.997969 -0.0626515   
     length 2.03153   
     axis 0 0 0   XYZ
    dof rx ry rz
    limits (-20.0 45.0)
           (-30.0 30.0)
           (-30.0 30.0)
  end
  begin
     id 12 
     name upperback
     direction -0.00423475 0.999974 -0.00583614   
     length 2.03619   
     axis 0 0 0   XYZ
    dof rx ry rz
    limits (-20.0 45.0)
           (-30.0 30.0)
           (-30.0 30.0)
  end
  begin
     id 13 
     name thorax
     direction 0.00289429 0.999728 0.0231573   
     length 2.03921   
     axis 0 0 0   XYZ
    dof rx ry rz
    limits (-20.0 45.0)
           (-30.0 30.0)
           (-30.0 30.0)
  end
  begin
     id 14 
     name lowerneck
     direction 0.0188995 0.987777 0.154721   
     length 1.78836   
     axis 0 0 0   XYZ
    dof rx ry rz
    limits (-20.0 45.0)
           (-30.0 30.0)
           (-30.0 30.0)
  end
  begin
     id 15 
     name upperneck
     direction -0.00612612 0.992995 -0.118   
     length 1.81789   
     axis 0 0 0   XYZ
    dof rx ry rz
    limits (-20.0 45.0)
           (-30.0 30.0)
           (-30.0 30.0)
  end
  begin
     id 16
     name head
     direction -0.00420226 0.998397 -0.0564482  
     length 1.82234  
     axis 0 0 0   XYZ
    dof rx ry rz
    limits (-20.0 45.0)
           (-30.0 30.0)
           (-30.0 30.0)
  end
  begin
     id 17 
     name lclavicle
     direction 0.916488 0.396539 0.0529676  
     length 3.51732  
     axis 0 0 0   XYZ
    dof ry rz
    limits (-20.0 10.0)
           (0.0 20.0)
  end
  begin
     id 18 
     name lhumerus
     direction 1 -4.4896e-011 8.36962e-028   
     length 5.45077   
     axis 180 -30 -90   XYZ
    dof rx ry rz
    limits (-60.0 90.0)
           (-90.0 90.0)
           (-90.0 90.0)
  end
  begin
     id 19
     name lradius
     direction 1 -4.48962e-011 3.01407e-027   
     length 3.05488   
     axis 180 -30 -90   XYZ
    dof rx
    limits (-10.0 170.0)
  end
  begin
     id 20
     name lwrist
     direction 1 -4.49002e-011 4.72961e-027   
     length 1.52744   
     axis -2.72261e-015 90 90   XYZ
    dof ry
    limits (-180.0 0.0)
 end
  begin
     id 21 
     name lhand
     direction 1 -4.4899e-011 9.45681e-027   
     length 0.638818   
     axis -6.0311e-015 90 90   XYZ
    dof rx rz
    limits (-90.0 90.0)
           (-45.0 45.0)
  end
  begin
     id 22 
     name lfingers
     direction 1 -4.48871e-011 1.88632e-026   
     length 0.515032   
     axis -1.20625e-014 90 90   XYZ
    dof rx
    limits (0.0 90.0)
  end
  begin
     id 23
     name lthumb
     direction 0.707107 -6.34964e-011 0.707107   
     length 0.739485   
     axis -90 45 6.32835e-014   XYZ
    dof rx rz
    limits (-45.0 45.0)
           (-45.0 45.0)
  end
  begin
     id 24 
     name rclavicle
     direction -0.949427 0.303202 0.0815894   
     length 3.76167  
     axis 0 0 0   XYZ 
    dof ry rz
    limits (-10.0 20.0)
           (-20.0 0.0)
  end
  begin
     id 25 
     name rhumerus
     direction -1 -4.48971e-011 -6.43969e-018  
     length 4.88702   
     axis 180 30 90   XYZ
    dof rx ry rz
    limits (-90.0 60.0)
           (-90.0 90.0)
           (-90.0 90.0)
  end
  begin
     id 26 
     name rradius
     direction -1 -4.48987e-011 5.46662e-027   
     length 3.22603   
     axis 180 30 90   XYZ
    dof rx
    limits (-10.0 170.0)
  end
  begin
     id 27 
     name rwrist
     direction -1 -4.48956e-011 4.72476e-027   
     length 1.61302   
     axis -2.72261e-015 -90 -90   XYZ
    dof ry
    limits (-180.0 0.0)
  end
  begin
     id 28
     name rhand
     direction -1 -4.4889e-011 9.43571e-027   
     length 0.716293   
     axis -6.0311e-015 -90 -90   XYZ
    dof rx rz
    limits (-90.0 90.0)
           (-45.0 45.0)
  end
  begin
     id 29
     name rfingers
     direction -1 -4.48887e-011 1.88701e-026   
     length 0.577494   
     axis -1.20625e-014 -90 -90   XYZ
    dof rx
    limits (0.0 90.0)
  end
  begin
     id 30
     name rthumb
     direction -0.707107 -6.34825e-011 0.707107   
     length 0.829169   
     axis -90 -45 -6.32835e-014   XYZ
    dof rx rz
    limits (-45.0 45.0)
           (-45.0 45.0)
  end
:hierarchy
  begin
    root lhipjoint rhipjoint lowerback
    lhipjoint lfemur
    lfemur ltibia
    ltibia lfoot
    lfoot ltoes
    rhipjoint rfemur
    rfemur rtibia
    rtibia rfoot
    rfoot rtoes
    lowerback upperback
    upperback thorax
    thorax lowerneck lclavicle rclavicle
    lowerneck upperneck
    upperneck head
    lclavicle lhumerus
    lhumerus lradius
    lradius lwrist
    lwrist lhand lthumb
    lhand lfingers
    rclavicle rhumerus
    rhumerus rradius
    rradius rwrist
    rwrist rhand rthumb
    rhand rfingers
  end

#!OML:ASF F:\VICON\USERDATA\INSTALL\rory3\rory3.ASF
:FULLY-SPECIFIED
:DEGREES
3068
root 1.58835 18.5284 0.871753 -176.807 71.0587 -189.352
lowerback -8.35986 1.66965 0.0829139
upperback -1.52781 2.25014 0.56489
thorax 3.08186 1.1414 0.782281
lowerneck -17.3415 9.33288 8.29002
upperneck 10.8736 11.5925 -6.38392
head 6.99728 5.41437 -2.04195
rclavicle -3.97569e-015 -7.95139e-016
rhumerus -42.343 11.798 -96.8885
rradius 43.1034
rwrist -9.15221
rhand -22.8922 9.28705
rfingers 7.12502
rthumb 3.54718 -20.6632
lclavicle -3.97569e-015 -7.95139e-016
lhumerus -45.2092 -18.2351 95.6485
lradius 66.1892
lwrist -3.76911
lhand -1.84512 23.3842
lfingers 7.12502
lthumb 23.8219 51.9272
rfemur -6.48761 -23.2002 19.7895
rtibia 4.76652
rfoot -9.75756 5.84243
rtoes -8.49224
lfemur -17.8085 2.67453 -17.8233
ltibia 14.7894
lfoot -8.85949 -13.3881
ltoes -26.8497
3069
root 1.58401 18.5296 0.874096 -176.471 70.821 -189.15
lowerback -8.35035 1.64894 0.068087
upperback -1.55512 2.22543 0.547434
thorax 3.04873 1.12955 0.768998
lowerneck -17.3757 9.19007 8.2309
upperneck 11.0629 11.3941 -6.22318
head 7.03652 5.32711 -2.00394
rclavicle -1.71452e-014 2.38542e-015
rhumerus -42.377 11.6823 -96.8292
rradius 42.6968
rwrist -9.49565
rhand -22.9817 9.35939
rfingers 7.12502
rthumb 3.46076 -20.5923
lclavicle -1.71452e-014 2.38542e-015
lhumerus -45.2664 -18.6105 95.9195
lradius 66.054
lwrist -3.57944
lhand -1.94953 23.4496
lfingers 7.12502
lthumb 23.7218 52.0056
rfemur -6.62907 -23.4323 19.9415
rtibia 4.72258
rfoot -9.73163 5.8393
rtoes -8.45227
lfemur -18.0423 2.53285 -17.7677
ltibia 14.8234
lfoot -8.79063 -13.5046
ltoes -26.795
3070
root 1.57752 18.5293 0.878195 -175.852 70.5292 -188.641
lowerback -8.30737 1.63161 0.16392
upperback -1.57462 2.19475 0.55178
thorax 3.0084 1.1156 0.71462
lowerneck -17.4946 9.05029 8.14309
upperneck 11.2841 11.1926 -6.01308
head 7.09558 5.23941 -1.94248
rclavicle 1.31198e-014 -4.77083e-014
rhumerus -42.4315 11.5605 -96.7448
rradius 42.4154
rwrist -9.55932
rhand -22.9034 9.60215
rfingers 7.12502
rthumb 3.53639 -20.3483
lclavicle 1.31198e-014 -4.77083e-014
lhumerus -45.3293 -19.1066 96.1904
lradius 65.9745
lwrist -3.49923
lhand -1.93778 23.3923
lfingers 7.12502
lthumb 23.7331 51.9468
rfemur -6.60673 -23.7169 20.1735
rtibia 4.41235
rfoot -9.57344 5.83811
rtoes -8.1224
lfemur -18.3428 2.46561 -17.6127
ltibia 14.9349
lfoot -8.7468 -13.722
ltoes -26.7704
3071
root 1.57588 18.5274 0.879773 -175.636 70.3915 -188.389
lowerback -8.20612 1.608 0.109988
upperback -1.52211 2.16469 0.603484
thorax 3.00274 1.09916 0.792662
lowerneck -17.5125 8.92011 8.05197
upperneck 11.3996 11.0192 -5.87186
head 7.11026 5.1629 -1.90419
rclavicle -1.78409e-014 7.95139e-016
rhumerus -42.4601 11.6839 -96.6605
rradius 42.1105
rwrist -9.22502
rhand -22.6349 9.52732
rfingers 7.12502
rthumb 3.79568 -20.4186
lclavicle -1.78409e-014 7.95139e-016
lhumerus -45.3151 -19.3829 96.3843
lradius 65.8156
lwrist -3.54123
lhand -1.91209 23.1797
lfingers 7.12502
lthumb 23.7577 51.7311
rfemur -6.2318 -23.8669 20.1754
rtibia 3.8449
rfoot -9.29274 5.77199
rtoes -7.93247
lfemur -18.4524 2.4644 -17.5317
ltibia 15.1186
lfoot -8.80552 -13.8668
ltoes -26.7599
3072
root 1.5821 18.5289 0.876783 -175.146 70.4007 -187.891
lowerback -8.26596 1.63344 0.196804
upperback -1.4724 2.18776 0.665724
thorax 3.08795 1.11063 0.813782
lowerneck -17.4787 8.81469 7.89503
upperneck 11.531 10.8857 -5.64312
head 7.1156 5.11122 -1.82414
rclavicle -7.04692e-014 -3.97569e-015
rhumerus -42.5264 12.0793 -96.7037
rradius 41.7301
rwrist -8.98607
rhand -22.6071 9.81424
rfingers 7.12502
rthumb 3.82248 -20.1312
lclavicle -7.04692e-014 -3.97569e-015
lhumerus -45.3927 -19.6281 96.5866
lradius 65.6856
lwrist -3.68539
lhand -2.22045 22.2906
lfingers 7.12502
lthumb 23.4619 50.8801
rfemur -5.81143 -23.869 20.2349
rtibia 3.12062
rfoot -9.00317 5.71766
rtoes -8.06134
lfemur -18.5263 2.4946 -17.3449
ltibia 15.3054
lfoot -8.98894 -13.8594
ltoes -27.1547
3073
root 1.58939 18.531 0.870772 -175.189 70.4161 -187.926
lowerback -8.31613 1.6678 0.163758
upperback -1.41687 2.23528 0.632494
thorax 3.17288 1.13295 0.806039
lowerneck -17.4911 8.71509 7.81681
upperneck 11.7099 10.7435 -5.43981
head 7.15005 5.05525 -1.76261
rclavicle 7.00716e-014 9.54166e-015
rhumerus -42.5348 12.3 -96.7309
rradius 41.2818
rwrist -8.26038
rhand -22.7225 10.1246
rfingers 7.12502
rthumb 3.71108 -19.8229
lclavicle 7.00716e-014 9.54166e-015
lhumerus -45.4789 -19.9867 96.8291
lradius 65.741
lwrist -3.64556
lhand -2.22181 23.1099
lfingers 7.12502
lthumb 23.4606 51.6996
rfemur -5.46498 -23.877 20.1077
rtibia 2.5927
rfoot -8.7776 5.65946
rtoes -8.22824
lfemur -18.4549 2.51336 -17.3511
ltibia 15.3983
lfoot -9.15706 -13.8678
ltoes -27.5665
3074
root 1.5891 18.5329 0.868496 -175.472 70.2948 -188.082
lowerback -8.13656 1.65362 0.0743941
upperback -1.33719 2.22198 0.607287
thorax 3.1532 1.12394 0.824139
lowerneck -17.5166 8.63513 7.73469
upperneck 11.9064 10.6376 -5.28846
head 7.19819 5.01199 -1.71148
rclavicle 2.79292e-014 -1.74931e-014
rhumerus -42.4963 12.3837 -96.614
rradius 40.9174
rwrist -7.18956
rhand -22.3215 10.2392
rfingers 7.12502
rthumb 4.0983 -19.7011
lclavicle 2.79292e-014 -1.74931e-014
lhumerus -45.494 -20.4313 97.1053
lradius 65.7514
lwrist -3.59558
lhand -2.1723 24.2577
lfingers 7.12502
lthumb 23.5081 52.8412
rfemur -5.09184 -24.0172 19.9285
rtibia 2.2882
rfoot -8.66528 5.65627
rtoes -8.21238
lfemur -18.3158 2.48063 -17.4004
ltibia 15.4522
lfoot -9.1667 -14.0119
ltoes -27.238
3075
root 1.58403 18.5287 0.870615 -175.321 70.0717 -187.942
lowerback -8.01565 1.61526 0.0634541
upperback -1.32467 2.17174 0.592286
thorax 3.09964 1.09864 0.805619
lowerneck -17.4794 8.54844 7.80829
upperneck 12 10.5097 -5.28776
head 7.21852 4.95415 -1.73906
rclavicle -5.36719e-015 -4.77083e-015
rhumerus -42.4529 12.4907 -96.5782
rradius 40.5629
rwrist -6.2188
rhand -21.7554 10.3439
rfingers 7.12502
rthumb 4.64491 -19.5851
lclavicle -5.36719e-015 -4.77083e-015
lhumerus -45.5324 -20.9258 97.3078
lradius 65.7298
lwrist -3.54765
lhand -2.30294 24.65
lfingers 7.12502
lthumb 23.3828 53.2495
rfemur -4.88033 -24.2466 19.9481
rtibia 1.94325
rfoot -8.53452 5.63719
rtoes -8.42515
lfemur -18.461 2.50449 -17.3909
ltibia 15.4386
lfoot -8.95385 -14.2504
ltoes -26.7623
3076
root 1.57891 18.5297 0.869281 -174.824 69.7886 -187.808
lowerback -8.25616 1.56064 0.0867437
upperback -1.44043 2.10209 0.567424
thorax 3.11634 1.06644 0.765143
lowerneck -17.3655 8.4351 7.82375
upperneck 12.0856 10.3591 -5.24619
head 7.21642 4.88821 -1.75052
rclavicle 2.18663e-015 -1.66979e-014
rhumerus -42.4931 12.8228 -96.6707
rradius 40.2425
rwrist -5.87192
rhand -21.3917 10.4615
rfingers 7.12502
rthumb 4.99613 -19.4596
lclavicle 2.18663e-015 -1.66979e-014
lhumerus -45.6293 -21.3138 97.4815
lradius 65.7207
lwrist -3.52979
lhand -2.35502 24.7524
lfingers 7.12502
lthumb 23.3328 53.3583
rfemur -5.25207 -24.529 20.1609
rtibia 1.84229
rfoot -8.41431 5.63016
rtoes -8.01522
lfemur -18.9415 2.24336 -17.3741
ltibia 15.3561
lfoot -8.75253 -14.2316
ltoes -26.47
3077
root 1.60598 18.5266 0.849353 -175.068 70.4408 -187.705
lowerback -8.2837 1.85065 0.214237
upperback -1.25359 2.47215 0.516325
thorax 3.3285 1.24863 0.686182
lowerneck -17.3716 8.31696 7.75945
upperneck 12.3273 10.2006 -5.09492
head 7.27444 4.82127 -1.70888
rclavicle 3.80673e-014 2.46493e-014
rhumerus -42.5574 13.048 -96.7349
rradius 39.9872
rwrist -5.70347
rhand -21.2787 10.5441
rfingers 7.12502
rthumb 5.10522 -19.3744
lclavicle 3.80673e-014 2.46493e-014
lhumerus -45.7173 -21.7533 97.6588
lradius 65.668
lwrist -3.44891
lhand -2.30989 24.9344
lfingers 7.12502
lthumb 23.3761 53.5348
rfemur -5.06289 -23.8725 20.0021
rtibia 2.26672
rfoot -8.71067 5.66579
rtoes -8.50396
lfemur -18.2955 2.74689 -17.3643
ltibia 15.2747
lfoot -8.99406 -14.0725
ltoes -26.5877
3078
root 1.61604 18.526 0.841669 -175.308 70.6417 -187.89
lowerback -8.30072 1.95822 0.159041
upperback -1.20358 2.61992 0.473164
thorax 3.38808 1.32065 0.690634
lowerneck -17.3316 8.24506 7.69646
upperneck 12.4959 10.1167 -5.01316
head 7.30993 4.78557 -1.68272
rclavicle 2.33075e-014 1.59028e-015
rhumerus -42.6053 13.2286 -96.7705
rradius 39.7078
rwrist -5.4891
rhand -21.4275 10.622
rfingers 7.12502
rthumb 4.96157 -19.3
lclavicle 2.33075e-014 1.59028e-015
lhumerus -45.7072 -22.0604 97.7959
lradius 65.5009
lwrist -3.34501
lhand -2.19555 25.0569
lfingers 7.12502
lthumb 23.4858 53.6433
rfemur -5.01317 -23.6795 19.882
rtibia 2.34837
rfoot -8.78993 5.66937
rtoes -8.74894
lfemur -18.1603 2.84075 -17.4365
ltibia 15.2647
lfoot -9.05083 -14.0241
ltoes -26.5271
